<svg width="183" height="23" viewBox="0 0 183 23" fill="none" xmlns="http://www.w3.org/2000/svg">
<path d="M11.5 0L14.0819 7.9463H22.4371L15.6776 12.8574L18.2595 20.8037L11.5 15.8926L4.74047 20.8037L7.32238 12.8574L0.56285 7.9463H8.91809L11.5 0Z" fill="#F5DC9B"/>
<path d="M91.5 0L94.0819 7.9463H102.437L95.6776 12.8574L98.2595 20.8037L91.5 15.8926L84.7405 20.8037L87.3224 12.8574L80.5628 7.9463H88.9181L91.5 0Z" fill="#F5DC9B"/>
<path d="M51.5 0L54.0819 7.9463H62.4371L55.6776 12.8574L58.2595 20.8037L51.5 15.8926L44.7405 20.8037L47.3224 12.8574L40.5628 7.9463H48.9181L51.5 0Z" fill="#F5DC9B"/>
<path d="M171.5 0L174.082 7.9463H182.437L175.678 12.8574L178.26 20.8037L171.5 15.8926L164.74 20.8037L167.322 12.8574L160.563 7.9463H168.918L171.5 0Z" fill="#F5DC9B"/>
<path d="M131.5 0L134.082 7.9463H142.437L135.678 12.8574L138.26 20.8037L131.5 15.8926L124.74 20.8037L127.322 12.8574L120.563 7.9463H128.918L131.5 0Z" fill="#F5DC9B"/>
</svg>
